<?xml version="1.0" encoding="utf-8"?>
<!-- Generator: Adobe Illustrator 16.0.0, SVG Export Plug-In . SVG Version: 6.00 Build 0)  -->
<!DOCTYPE svg PUBLIC "-//W3C//DTD SVG 1.1//EN" "http://www.w3.org/Graphics/SVG/1.1/DTD/svg11.dtd">
<svg version="1.1" id="Layer_1" xmlns="http://www.w3.org/2000/svg" xmlns:xlink="http://www.w3.org/1999/xlink" x="0px" y="0px"
	 width="3000px" height="3000px" viewBox="0 0 3000 3000" enable-background="new 0 0 3000 3000" xml:space="preserve">
<title>AMP-Brand-Blue</title>
<g>
	<path fill="#0379C4" d="M1593.223,1573.114h121.2l-40.8-120.257c-2.623-7.629-5.726-16.629-9.258-26.983
		c-3.6-10.337-7.097-21.531-10.542-33.6c-3.224,12.257-6.583,23.623-10.028,34.08c-3.463,10.457-6.721,19.474-9.771,27.086
		l-40.801,119.656V1573.114z M1878.343,1741.012h-79.817c-8.948,0-16.285-2.092-22.113-6.206c-5.761-4.114-9.771-9.395-12-15.823
		l-26.195-76.542h-168.754l-26.229,76.542c-1.988,5.623-5.966,10.715-11.828,15.224c-5.897,4.525-13.115,6.788-21.652,6.788h-80.434
		l171.822-439.166h105.377l171.823,439.2V1741.012z M2238.205,1564.046c3.771,8.229,7.372,16.714,10.801,25.371
		c3.463-8.88,7.114-17.485,10.971-25.8c3.857-8.349,7.817-16.457,11.881-24.274l113.914-222.068c2.057-3.84,4.114-6.806,6.257-8.914
		c2.126-2.109,4.526-3.669,7.149-4.681c2.64-1.028,5.656-1.509,8.982-1.509h90.343v438.857h-90.771v-252.617
		c0-12.24,0.601-25.543,1.817-39.771l-117.565,225.737c-3.651,7.028-8.571,12.343-14.777,15.978
		c-6.206,3.6-13.251,5.417-21.171,5.417h-13.989c-7.92,0-14.966-1.783-21.171-5.4c-6.224-3.6-11.143-8.914-14.812-15.977
		l-118.166-226.063c0.806,7.029,1.423,14.023,1.817,20.949c0.395,6.942,0.6,13.337,0.6,19.148v252.6h-90.771v-438.856h90.326
		c3.326,0,6.343,0.479,8.966,1.491c2.64,1.028,5.022,2.571,7.148,4.697c2.143,2.108,4.218,5.074,6.257,8.914l114.223,222.96
		c4.063,7.646,7.955,15.6,11.727,23.828 M2759.828,1517.366h53.606c26.794,0,46.08-6.344,57.874-18.995
		c11.777-12.651,17.657-30.343,17.657-53.04c0-10.028-1.509-19.199-4.56-27.428c-3.052-8.229-7.681-15.309-13.852-21.258
		c-6.224-5.896-14.058-10.491-23.486-13.714c-9.428-3.206-20.674-4.8-33.651-4.8h-53.605v139.251L2759.828,1517.366z
		 M2759.828,1594.217v146.777h-102.959v-439.131h156.565c31.269,0,58.114,3.668,80.571,10.971
		c22.423,7.372,40.92,17.452,55.423,30.343c14.521,12.857,25.251,28.012,32.143,45.48c6.909,17.485,10.354,36.377,10.354,56.674
		c0,21.909-3.565,42-10.662,60.309c-7.133,18.258-18.001,33.943-32.606,47.006c-14.622,13.063-33.154,23.263-55.594,30.583
		c-22.423,7.371-48.978,11.006-79.646,11.006h-53.606L2759.828,1594.217z M697.269,1452.908l-217.817,359.023h-39.463
		l39.018-233.949l-120.823,0.172h-1.714c-10.852,0-19.68-8.743-19.68-19.491c0-4.629,4.354-12.463,4.354-12.463l217.098-358.629
		l40.114,0.172l-39.978,234.309l121.44-0.138l1.92-0.034c10.886,0,19.714,8.743,19.714,19.543c0,4.354-1.714,8.194-4.199,11.451
		L697.269,1452.908z M519.223,985.714C232.457,985.714,0,1215.978,0,1500c0,284.057,232.457,514.286,519.223,514.286
		c286.8,0,519.258-230.246,519.258-514.286C1038.48,1215.978,806.022,985.714,519.223,985.714z"/>
</g>
</svg>
