<svg xmlns:dc="http://purl.org/dc/elements/1.1/" xmlns:cc="http://creativecommons.org/ns#" xmlns:rdf="http://www.w3.org/1999/02/22-rdf-syntax-ns#" xmlns:svg="http://www.w3.org/2000/svg" xmlns="http://www.w3.org/2000/svg" xmlns:sodipodi="http://sodipodi.sourceforge.net/DTD/sodipodi-0.dtd" xmlns:inkscape="http://www.inkscape.org/namespaces/inkscape" version="1.1" x="0px" y="0px" height="32" viewBox="0 0 100 125"><g transform="translate(0,-952.36218)"><path fill="#fb8e82" d="m 50,960.36217 c -23.17227,0 -41.9999998,18.82774 -41.9999998,42.00003 0,23.1723 18.8277298,42 41.9999998,42 23.172259,0 42,-18.8277 42,-42 0,-23.17229 -18.827741,-42.00003 -42,-42.00003 z m -2.0625,4.1875 C 48.06613,969.65564 48,975.10597 48,980.33092 l -12.84375,0 c 2.82642,-8.53076 7.31199,-14.61357 12.78125,-15.78125 z M 52,964.61217 c 5.381691,1.26761 9.80067,7.28862 12.59375,15.71875 l -12.59375,0 z m -12.9375,1.34375 c -3.17098,3.48979 -5.857709,8.44059 -7.78125,14.375 l -12.25,0 c 4.83647,-6.78822 11.85251,-11.92612 20.03125,-14.375 z m 21.875,0 c 8.17874,2.44888 15.194789,7.58678 20.03125,14.375 l -12.25,0 c -1.923551,-5.93441 -4.61027,-10.88521 -7.78125,-14.375 z m -44.40625,18.375 13.625,0 c -1.22365,4.89358 -1.98183,10.29134 -2.125,15.99998 l -15.96875,0 c 0.301291,-5.77196 1.879551,-11.19545 4.46875,-15.99998 z m 17.46875,0 14,0 0,15.99998 -16.0625,0 C 32.079221,994.64907 32.77971,989.1942 34,984.33092 z m 18,0 13.75,0 c 1.220289,4.86328 1.92077,10.31815 2.0625,15.99998 l -15.8125,0 z m 17.84375,0 13.625,0 c 2.5892,4.80453 4.16746,10.22802 4.46875,15.99998 l -15.96875,0 c -0.14317,-5.70864 -0.90135,-11.1064 -2.125,-15.99998 z m -57.78125,19.99998 15.96875,0 c 0.1367,5.7048 0.877631,11.1094 2.09375,16 l -13.625,0 c -2.574979,-4.7985 -4.14153,-10.2401 -4.4375,-16 z m 19.875,0 16.0625,0 0,16 -14,0 c -1.21613,-4.8666 -1.925129,-10.3179 -2.0625,-16 z m 20.0625,0 15.8125,0 c -0.137371,5.6821 -0.84637,11.1334 -2.0625,16 l -13.75,0 z m 19.96875,0 15.96875,0 c -0.29597,5.7599 -1.862521,11.2015 -4.4375,16 l -13.625,0 c 1.21612,-4.8906 1.957049,-10.2952 2.09375,-16 z m -53,20 12.28125,0 c 1.91977,5.9506 4.60683,10.9062 7.78125,14.4063 -8.19408,-2.461 -15.23039,-7.5914 -20.0625,-14.4063 z m 16.1875,0 12.84375,0 0,15.8125 c -5.50247,-1.1373 -10.00758,-7.2357 -12.84375,-15.8125 z m 16.84375,0 12.59375,0 c -2.79257,8.445 -7.20603,14.481 -12.59375,15.75 z m 16.75,0 12.28125,0 c -4.8321,6.8149 -11.868421,11.9453 -20.0625,14.4063 3.17442,-3.5001 5.86148,-8.4557 7.78125,-14.4063 z" fill="#000000" fill-opacity="1" stroke="none" marker="none" visibility="visible" display="inline" overflow="visible"/></g></svg>
